<?xml version="1.0" standalone="no"?>
<!DOCTYPE svg PUBLIC "-//W3C//DTD SVG 20010904//EN"
 "http://www.w3.org/TR/2001/REC-SVG-20010904/DTD/svg10.dtd">
<svg version="1.0" xmlns="http://www.w3.org/2000/svg"
 width="1024.000000pt" height="1024.000000pt" viewBox="0 0 1024.000000 1024.000000"
 preserveAspectRatio="xMidYMid meet">
<metadata>
Created by potrace 1.11, written by Peter Selinger 2001-2013
</metadata>
<g transform="translate(0.000000,1024.000000) scale(0.100000,-0.100000)"
fill="#000000" stroke="none">
<path d="M6300 9999 c0 -2 23 -70 50 -149 74 -211 76 -292 13 -470 -98 -274
-372 -679 -742 -1095 -64 -71 -471 -486 -906 -921 -434 -435 -824 -827 -865
-871 -151 -160 -187 -200 -260 -288 -41 -49 -77 -92 -81 -95 -4 -4 -82 -103
-176 -225 -217 -279 -397 -614 -445 -825 -19 -83 -23 -213 -7 -273 11 -44 46
-82 524 -560 516 -516 574 -572 561 -550 -4 7 -30 79 -58 160 -56 165 -65 229
-43 334 56 267 264 608 670 1097 l21 24 198 -228 c109 -126 219 -254 246 -284
183 -210 250 -289 250 -296 0 -4 -323 -330 -717 -723 -395 -394 -747 -747
-782 -786 -120 -131 -275 -316 -372 -443 -54 -70 -104 -134 -111 -142 -15 -19
-130 -190 -181 -272 -61 -96 -165 -317 -191 -402 -47 -154 -58 -307 -27 -387
7 -19 967 -991 1057 -1071 16 -14 12 5 -22 105 -23 67 -44 129 -47 137 -91
236 108 659 584 1240 181 222 277 321 1117 1165 466 468 872 877 902 911 30
33 73 80 95 105 64 71 207 241 268 318 15 20 33 43 40 51 83 102 244 342 314
465 74 131 155 311 168 375 2 8 9 35 15 60 13 44 17 215 7 255 -3 11 -6 26 -6
34 -1 13 -1062 1081 -1074 1081 -3 0 20 -71 50 -157 56 -162 64 -217 49 -313
-27 -170 -164 -441 -363 -718 -70 -97 -275 -358 -319 -407 -11 -11 -34 -38
-53 -60 -19 -22 -57 -65 -85 -95 -28 -31 -60 -67 -71 -81 -43 -53 -38 -57
-240 171 -187 211 -315 389 -379 525 -48 101 -51 123 -24 173 14 26 328 348
829 850 839 841 850 852 1098 1147 61 73 203 262 264 353 180 265 281 467 328
655 35 136 24 308 -21 353 -142 146 -1050 1047 -1050 1043z"/>
</g>
</svg>
